<svg xmlns="http://www.w3.org/2000/svg" width="860" height="280" viewBox="0 0 860 280">
  <defs>
    <linearGradient id="bg" x1="0%" y1="0%" x2="100%" y2="100%">
      <stop offset="0%" style="stop-color:#070012"/>
      <stop offset="100%" style="stop-color:#0A001A"/>
    </linearGradient>
    <linearGradient id="accent" x1="0%" y1="0%" x2="100%" y2="0%">
      <stop offset="0%" style="stop-color:#7B00FF"/>
      <stop offset="100%" style="stop-color:#00E5FF"/>
    </linearGradient>
  </defs>
  <rect width="860" height="280" fill="url(#bg)" rx="12"/>
  <rect x="0" y="0" width="860" height="4" fill="url(#accent)" rx="2"/>
  <!-- Phone repair icon -->
  <rect x="55" y="70" width="62" height="110" rx="8" fill="none" stroke="#7B00FF" stroke-width="2"/>
  <rect x="65" y="80" width="42" height="72" rx="3" fill="#7B00FF" opacity="0.1"/>
  <circle cx="86" cy="168" r="4" fill="#7B00FF" opacity="0.6"/>
  <!-- Wrench tool overlay -->
  <circle cx="86" cy="116" r="18" fill="none" stroke="#00E5FF" stroke-width="1.5" opacity="0.5"/>
  <line x1="86" y1="98" x2="86" y2="134" stroke="#00E5FF" stroke-width="1.5" opacity="0.7"/>
  <line x1="68" y1="116" x2="104" y2="116" stroke="#00E5FF" stroke-width="1.5" opacity="0.7"/>
  <!-- Text -->
  <text x="152" y="112" font-family="'Segoe UI', Arial, sans-serif" font-size="40" font-weight="700" fill="white" opacity="0.95">ChimeraTool</text>
  <text x="153" y="148" font-family="'Segoe UI', Arial, sans-serif" font-size="16" fill="#7B00FF">Activated · Unlimited Credits · Server Auth Bypassed</text>
  <rect x="152" y="163" width="200" height="2" fill="url(#accent)" opacity="0.5" rx="1"/>
  <text x="152" y="184" font-family="'Segoe UI', Arial, sans-serif" font-size="13" fill="white" opacity="0.55">Samsung · Huawei · Xiaomi · MTK · Qualcomm · 40,000+ Models</text>
  <!-- Badges -->
  <rect x="152" y="202" width="100" height="26" rx="5" fill="#7B00FF" opacity="0.2"/>
  <text x="202" y="219" font-family="Arial, sans-serif" font-size="12" fill="#7B00FF" text-anchor="middle">FRP Remove</text>
  <rect x="262" y="202" width="110" height="26" rx="5" fill="#00E5FF" opacity="0.12"/>
  <text x="317" y="219" font-family="Arial, sans-serif" font-size="12" fill="#00E5FF" text-anchor="middle">IMEI Repair</text>
  <rect x="382" y="202" width="120" height="26" rx="5" fill="#7B00FF" opacity="0.18"/>
  <text x="442" y="219" font-family="Arial, sans-serif" font-size="12" fill="#7B00FF" text-anchor="middle">Network Unlock</text>
  <circle cx="780" cy="130" r="100" fill="#7B00FF" opacity="0.03"/>
</svg>
